
      <svg data-logo="logo" xmlns="http://www.w3.org/2000/svg" viewBox="0 0 216 43">
        <g id="logogram" transform="translate(0, 1.5) rotate(0) "><path fill-rule="evenodd" clip-rule="evenodd" d="M20 0C27.4768 0 31.2154 -0.000204921 34 1.60742C35.8242 2.66064 37.3394 4.17577 38.3926 6C40.0002 8.7846 40 12.5232 40 20C40 27.4768 40.0002 31.2154 38.3926 34C37.3394 35.8242 35.8242 37.3394 34 38.3926C31.2154 40.0002 27.4768 40 20 40C12.5232 40 8.7846 40.0002 6 38.3926C4.17577 37.3394 2.66064 35.8242 1.60742 34C-0.000204921 31.2154 0 27.4768 0 20C0 12.5232 -0.000204921 8.7846 1.60742 6C2.66064 4.17577 4.17577 2.66064 6 1.60742C8.7846 -0.000204921 12.5232 0 20 0ZM22 4C13.1634 4 6 11.1634 6 20C6 28.8366 13.1634 36 22 36C30.8366 36 38 28.8366 38 20C38 11.1634 30.8366 4 22 4Z" fill="#FFFFFF"/><path d="M36 20C36 25.5228 31.5228 30 26 30C20.4772 30 16 25.5228 16 20C16 14.4772 20.4772 10 26 10C31.5228 10 36 14.4772 36 20Z" fill="#FFFFFF"/></g>
        <g id="logotype" transform="translate(46, 1)"><path fill="#ffffff" d="M12.23 33L6.53 33L16.33 8.29L21.30 8.29L30.99 33L25.18 33L17.76 12.49L19.76 12.49L12.23 33ZM25.57 28.52L12.09 28.52L12.09 24.04L25.57 24.04L25.57 28.52ZM39.04 40.63L39.04 40.63Q36.24 40.63 34.12 39.67Q32.01 38.70 30.78 36.95L30.78 36.95L34.07 33.66Q34.98 34.75 36.12 35.31Q37.26 35.87 38.87 35.87L38.87 35.87Q40.86 35.87 42.00 34.89Q43.14 33.91 43.14 32.13L43.14 32.13L43.14 27.79L44.05 24.07L43.24 20.36L43.24 15.99L48.49 15.99L48.49 31.98Q48.49 34.61 47.27 36.53Q46.04 38.46 43.91 39.55Q41.77 40.63 39.04 40.63ZM38.80 32.48L38.80 32.48Q36.45 32.48 34.63 31.36Q32.81 30.23 31.76 28.31Q30.71 26.38 30.71 24.04L30.71 24.04Q30.71 21.66 31.76 19.75Q32.81 17.84 34.63 16.74Q36.45 15.64 38.80 15.64L38.80 15.64Q40.55 15.64 41.93 16.29Q43.31 16.93 44.17 18.11Q45.03 19.28 45.13 20.82L45.13 20.82L45.13 27.29Q45.03 28.80 44.17 29.97Q43.31 31.14 41.91 31.81Q40.51 32.48 38.80 32.48ZM39.81 27.71L39.81 27.71Q40.93 27.71 41.75 27.23Q42.58 26.73 43.01 25.91Q43.45 25.09 43.45 24.04L43.45 24.04Q43.45 22.99 43.01 22.15Q42.58 21.31 41.75 20.82Q40.93 20.33 39.81 20.33L39.81 20.33Q38.73 20.33 37.89 20.82Q37.05 21.31 36.59 22.15Q36.14 22.99 36.14 24.04L36.14 24.04Q36.14 25.02 36.59 25.88Q37.05 26.73 37.87 27.23Q38.69 27.71 39.81 27.71ZM59.76 33.38L59.76 33.38Q57.14 33.38 55.02 32.21Q52.90 31.04 51.68 29.01Q50.45 26.98 50.45 24.46L50.45 24.46Q50.45 21.94 51.68 19.95Q52.90 17.95 55.00 16.78Q57.10 15.60 59.76 15.60L59.76 15.60Q62.42 15.60 64.52 16.76Q66.62 17.91 67.85 19.93Q69.07 21.94 69.07 24.46L69.07 24.46Q69.07 26.98 67.85 29.01Q66.62 31.04 64.52 32.21Q62.42 33.38 59.76 33.38ZM59.76 28.52L59.76 28.52Q60.92 28.52 61.79 28.01Q62.67 27.50 63.14 26.58Q63.61 25.65 63.61 24.46L63.61 24.46Q63.61 23.27 63.12 22.38Q62.63 21.48 61.77 20.98Q60.92 20.47 59.76 20.47L59.76 20.47Q58.64 20.47 57.77 20.98Q56.89 21.48 56.40 22.39Q55.91 23.30 55.91 24.49L55.91 24.49Q55.91 25.65 56.40 26.58Q56.89 27.50 57.77 28.01Q58.64 28.52 59.76 28.52ZM76.39 33L71.03 33L71.03 15.99L76.39 15.99L76.39 33ZM76.39 23.66L76.39 23.66L74.14 21.91Q74.81 18.93 76.39 17.28Q77.96 15.64 80.76 15.64L80.76 15.64Q81.98 15.64 82.91 16.01Q83.84 16.38 84.54 17.14L84.54 17.14L81.36 21.17Q81.00 20.78 80.48 20.57Q79.95 20.36 79.29 20.36L79.29 20.36Q77.96 20.36 77.17 21.19Q76.39 22.01 76.39 23.66ZM91.89 33.35L91.89 33.35Q89.55 33.35 87.71 32.20Q85.87 31.04 84.80 29.04Q83.74 27.05 83.74 24.49L83.74 24.49Q83.74 21.94 84.80 19.95Q85.87 17.95 87.71 16.79Q89.55 15.64 91.89 15.64L91.89 15.64Q93.61 15.64 94.99 16.30Q96.37 16.97 97.25 18.14Q98.12 19.31 98.23 20.82L98.23 20.82L98.23 28.17Q98.12 29.68 97.26 30.85Q96.41 32.02 95.01 32.69Q93.61 33.35 91.89 33.35ZM92.98 28.52L92.98 28.52Q94.69 28.52 95.74 27.38Q96.79 26.24 96.79 24.49L96.79 24.49Q96.79 23.30 96.32 22.39Q95.85 21.48 94.99 20.98Q94.13 20.47 93.01 20.47L93.01 20.47Q91.89 20.47 91.03 20.98Q90.18 21.48 89.67 22.39Q89.16 23.30 89.16 24.49L89.16 24.49Q89.16 25.65 89.65 26.56Q90.14 27.47 91.02 27.99Q91.89 28.52 92.98 28.52ZM101.83 33L96.58 33L96.58 28.41L97.39 24.28L96.58 20.16L96.58 15.99L101.83 15.99L101.83 33ZM112.82 33.38L112.82 33.38Q109.78 33.38 107.59 32.39Q105.40 31.39 103.58 29.36L103.58 29.36L107.15 25.82Q108.34 27.19 109.79 27.94Q111.25 28.70 113.17 28.70L113.17 28.70Q114.92 28.70 115.88 28.06Q116.85 27.43 116.85 26.31L116.85 26.31Q116.85 25.30 116.22 24.67Q115.59 24.04 114.55 23.59Q113.52 23.13 112.28 22.71Q111.04 22.29 109.81 21.75Q108.59 21.20 107.55 20.38Q106.52 19.56 105.89 18.32Q105.26 17.07 105.26 15.18L105.26 15.18Q105.26 12.91 106.36 11.26Q107.47 9.62 109.43 8.76Q111.39 7.90 113.94 7.90L113.94 7.90Q116.53 7.90 118.68 8.81Q120.84 9.72 122.24 11.30L122.24 11.30L118.67 14.83Q117.55 13.68 116.41 13.12Q115.27 12.56 113.84 12.56L113.84 12.56Q112.40 12.56 111.56 13.10Q110.72 13.64 110.72 14.66L110.72 14.66Q110.72 15.60 111.35 16.18Q111.98 16.76 113.01 17.18Q114.05 17.60 115.29 18.02Q116.53 18.44 117.76 19Q118.98 19.56 120.01 20.42Q121.05 21.27 121.68 22.59Q122.31 23.90 122.31 25.82L122.31 25.82Q122.31 29.36 119.79 31.37Q117.27 33.38 112.82 33.38ZM132.70 33.38L132.70 33.38Q130.08 33.38 127.96 32.21Q125.84 31.04 124.62 29.01Q123.39 26.98 123.39 24.46L123.39 24.46Q123.39 21.94 124.62 19.95Q125.84 17.95 127.94 16.78Q130.04 15.60 132.70 15.60L132.70 15.60Q135.36 15.60 137.46 16.76Q139.56 17.91 140.78 19.93Q142.01 21.94 142.01 24.46L142.01 24.46Q142.01 26.98 140.78 29.01Q139.56 31.04 137.46 32.21Q135.36 33.38 132.70 33.38ZM132.70 28.52L132.70 28.52Q133.86 28.52 134.73 28.01Q135.61 27.50 136.08 26.58Q136.55 25.65 136.55 24.46L136.55 24.46Q136.55 23.27 136.06 22.38Q135.57 21.48 134.71 20.98Q133.86 20.47 132.70 20.47L132.70 20.47Q131.58 20.47 130.71 20.98Q129.83 21.48 129.34 22.39Q128.85 23.30 128.85 24.49L128.85 24.49Q128.85 25.65 129.34 26.58Q129.83 27.50 130.71 28.01Q131.58 28.52 132.70 28.52ZM151.15 33L145.79 33L145.79 14.52Q145.79 12.45 146.72 10.79Q147.65 9.13 149.33 8.17Q151.01 7.20 153.32 7.20L153.32 7.20Q155.07 7.20 156.38 7.78Q157.69 8.36 158.67 9.37L158.67 9.37L155.31 12.73Q154.96 12.38 154.52 12.19Q154.09 12.00 153.49 12.00L153.49 12.00Q152.41 12.00 151.78 12.63Q151.15 13.26 151.15 14.34L151.15 14.34L151.15 33ZM156.05 20.54L142.05 20.54L142.05 15.99L156.05 15.99L156.05 20.54ZM164.97 33L159.62 33L159.62 8.95L164.97 8.95L164.97 33ZM168.82 20.54L155.77 20.54L155.77 15.99L168.82 15.99L168.82 20.54Z"/></g>
        
      </svg>
    